<mxfile host="app.diagrams.net" modified="2023-04-08T18:45:39.075Z" agent="Mozilla/5.0 (Windows NT 10.0; Win64; x64) AppleWebKit/537.36 (KHTML, like Gecko) Chrome/111.0.0.0 Safari/537.36" etag="ECvaibrSYPuyA1M5jDzY" version="21.1.5" type="device">
  <diagram id="C5RBs43oDa-KdzZeNtuy" name="Page-1">
    <mxGraphModel dx="1050" dy="602" grid="1" gridSize="10" guides="1" tooltips="1" connect="1" arrows="1" fold="1" page="1" pageScale="1" pageWidth="827" pageHeight="1169" math="0" shadow="0">
      <root>
        <mxCell id="WIyWlLk6GJQsqaUBKTNV-0" />
        <mxCell id="WIyWlLk6GJQsqaUBKTNV-1" parent="WIyWlLk6GJQsqaUBKTNV-0" />
        <mxCell id="v-vPTJVXtSAflx6Q9qWa-7" style="edgeStyle=orthogonalEdgeStyle;rounded=0;orthogonalLoop=1;jettySize=auto;html=1;" edge="1" parent="WIyWlLk6GJQsqaUBKTNV-1" source="v-vPTJVXtSAflx6Q9qWa-0" target="v-vPTJVXtSAflx6Q9qWa-1">
          <mxGeometry relative="1" as="geometry" />
        </mxCell>
        <mxCell id="v-vPTJVXtSAflx6Q9qWa-0" value="" style="strokeWidth=2;html=1;shape=mxgraph.flowchart.start_2;whiteSpace=wrap;fillColor=#76608a;fontColor=#ffffff;strokeColor=#432D57;" vertex="1" parent="WIyWlLk6GJQsqaUBKTNV-1">
          <mxGeometry x="345" y="40" width="75" height="70" as="geometry" />
        </mxCell>
        <mxCell id="v-vPTJVXtSAflx6Q9qWa-8" style="edgeStyle=orthogonalEdgeStyle;rounded=0;orthogonalLoop=1;jettySize=auto;html=1;" edge="1" parent="WIyWlLk6GJQsqaUBKTNV-1" source="v-vPTJVXtSAflx6Q9qWa-1" target="v-vPTJVXtSAflx6Q9qWa-2">
          <mxGeometry relative="1" as="geometry" />
        </mxCell>
        <mxCell id="v-vPTJVXtSAflx6Q9qWa-1" value="&quot;Nombre del empleado: &quot; .empleado" style="shape=parallelogram;html=1;strokeWidth=2;perimeter=parallelogramPerimeter;whiteSpace=wrap;rounded=1;arcSize=12;size=0.23;fillColor=#ffe6cc;strokeColor=#d79b00;" vertex="1" parent="WIyWlLk6GJQsqaUBKTNV-1">
          <mxGeometry x="240" y="160" width="290" height="60" as="geometry" />
        </mxCell>
        <mxCell id="v-vPTJVXtSAflx6Q9qWa-9" style="edgeStyle=orthogonalEdgeStyle;rounded=0;orthogonalLoop=1;jettySize=auto;html=1;" edge="1" parent="WIyWlLk6GJQsqaUBKTNV-1" source="v-vPTJVXtSAflx6Q9qWa-2" target="v-vPTJVXtSAflx6Q9qWa-3">
          <mxGeometry relative="1" as="geometry" />
        </mxCell>
        <mxCell id="v-vPTJVXtSAflx6Q9qWa-2" value="&quot;Ingresar valor x hora: &quot; .valor" style="shape=parallelogram;html=1;strokeWidth=2;perimeter=parallelogramPerimeter;whiteSpace=wrap;rounded=1;arcSize=12;size=0.23;fillColor=#ffe6cc;strokeColor=#d79b00;" vertex="1" parent="WIyWlLk6GJQsqaUBKTNV-1">
          <mxGeometry x="240" y="250" width="290" height="60" as="geometry" />
        </mxCell>
        <mxCell id="v-vPTJVXtSAflx6Q9qWa-10" style="edgeStyle=orthogonalEdgeStyle;rounded=0;orthogonalLoop=1;jettySize=auto;html=1;" edge="1" parent="WIyWlLk6GJQsqaUBKTNV-1" source="v-vPTJVXtSAflx6Q9qWa-3" target="v-vPTJVXtSAflx6Q9qWa-4">
          <mxGeometry relative="1" as="geometry" />
        </mxCell>
        <mxCell id="v-vPTJVXtSAflx6Q9qWa-3" value="&quot;Ingresar horas trabajadas: &quot; .horas" style="shape=parallelogram;html=1;strokeWidth=2;perimeter=parallelogramPerimeter;whiteSpace=wrap;rounded=1;arcSize=12;size=0.23;fillColor=#ffe6cc;strokeColor=#d79b00;" vertex="1" parent="WIyWlLk6GJQsqaUBKTNV-1">
          <mxGeometry x="228" y="340" width="290" height="60" as="geometry" />
        </mxCell>
        <mxCell id="v-vPTJVXtSAflx6Q9qWa-11" style="edgeStyle=orthogonalEdgeStyle;rounded=0;orthogonalLoop=1;jettySize=auto;html=1;" edge="1" parent="WIyWlLk6GJQsqaUBKTNV-1" source="v-vPTJVXtSAflx6Q9qWa-4" target="v-vPTJVXtSAflx6Q9qWa-5">
          <mxGeometry relative="1" as="geometry" />
        </mxCell>
        <mxCell id="v-vPTJVXtSAflx6Q9qWa-4" value="sueldo =&amp;nbsp; valor * horas" style="rounded=1;whiteSpace=wrap;html=1;absoluteArcSize=1;arcSize=14;strokeWidth=2;fillColor=#ffe6cc;strokeColor=#d79b00;" vertex="1" parent="WIyWlLk6GJQsqaUBKTNV-1">
          <mxGeometry x="250" y="430" width="250" height="100" as="geometry" />
        </mxCell>
        <mxCell id="v-vPTJVXtSAflx6Q9qWa-12" style="edgeStyle=orthogonalEdgeStyle;rounded=0;orthogonalLoop=1;jettySize=auto;html=1;" edge="1" parent="WIyWlLk6GJQsqaUBKTNV-1" source="v-vPTJVXtSAflx6Q9qWa-5" target="v-vPTJVXtSAflx6Q9qWa-6">
          <mxGeometry relative="1" as="geometry" />
        </mxCell>
        <mxCell id="v-vPTJVXtSAflx6Q9qWa-5" value="&quot;El sueldo del emplado &quot; .empleado &quot;es de: &quot; .sueldo" style="strokeWidth=2;html=1;shape=mxgraph.flowchart.document2;whiteSpace=wrap;size=0.25;fillColor=#ffe6cc;strokeColor=#d79b00;" vertex="1" parent="WIyWlLk6GJQsqaUBKTNV-1">
          <mxGeometry x="270.5" y="560" width="224" height="90" as="geometry" />
        </mxCell>
        <mxCell id="v-vPTJVXtSAflx6Q9qWa-6" value="" style="strokeWidth=2;html=1;shape=mxgraph.flowchart.start_2;whiteSpace=wrap;fillColor=#76608a;fontColor=#ffffff;strokeColor=#432D57;" vertex="1" parent="WIyWlLk6GJQsqaUBKTNV-1">
          <mxGeometry x="360" y="690" width="80" height="70" as="geometry" />
        </mxCell>
      </root>
    </mxGraphModel>
  </diagram>
</mxfile>
